<svg width="50" height="50" viewBox="0 0 50 50" fill="none" xmlns="http://www.w3.org/2000/svg">
<path d="M8.62043 22.7549C9.00764 22.5424 9.40654 22.3454 9.82327 22.1715C11.4742 21.4838 13.3286 21.1343 15.3325 21.1343C16.4443 21.1343 17.525 21.2451 18.5491 21.4158L12.422 17.2638L22.4369 22.3955C23.1499 22.6375 23.7685 22.8789 24.2674 23.0889C24.2692 23.0841 24.2716 23.0774 24.274 23.0707C23.6184 20.4548 21.7296 14.8062 17.2041 12.1262C14.9837 10.8117 12.4399 10.3981 10.117 10.3981C6.1636 10.3981 2.84851 11.5961 2.84851 11.5961C2.84851 11.5961 3.97941 18.7522 8.62043 22.7549Z" fill="#2081E2"/>
<path d="M11.7607 30.7225L18.3999 27.4675C19.9204 25.9798 21.4253 24.8933 22.3887 24.2673C20.6138 23.6239 18.0479 22.9151 15.3317 22.9151C13.7292 22.9151 12.0749 23.1613 10.5077 23.8151C4.07202 26.4959 1.49144 34.9994 1.49144 34.9994C1.49144 34.9994 5.98313 37.3765 10.9557 37.3765C11.723 37.3765 12.5024 37.3157 13.278 37.1846C13.3156 36.7865 13.36 36.3878 13.4363 35.9865C13.9688 33.1826 15.4252 30.7939 17.0665 28.8829L11.7607 30.7225Z" fill="#2081E2"/>
<path d="M21.6418 39.0709L23.3354 25.777C21.229 27.153 16.2081 30.9335 15.1848 36.3187C13.8835 43.1679 19.5667 50 19.5667 50C19.5667 50 27.1217 45.8437 28.5854 39.1685C25.7215 36.108 24.6229 31.9698 24.2166 28.9328L21.6418 39.0709Z" fill="#2081E2"/>
<path d="M39.7196 28.4282C39.4881 28.219 39.2356 28.0483 38.9908 27.8612C37.6099 28.2781 36.1165 28.5012 34.5148 28.5012C32.831 28.5012 31.2358 28.2607 29.8252 27.949L36.2175 34.5102L27.1158 27.2031C26.6039 27.0317 26.1451 26.8675 25.7946 26.7279C25.9489 29.5367 26.7374 35.1616 30.4966 38.5777C33.8385 41.6137 38.7044 42.1488 41.7193 42.1488C43.3597 42.1488 44.4518 41.9903 44.4518 41.9903C44.4518 41.9903 44.8785 33.1153 39.7196 28.4282Z" fill="#2081E2"/>
<path d="M38.4247 18.7604L28.0397 24.3911C27.5795 24.7473 27.1815 25.0261 26.8713 25.2313C28.451 25.8245 31.3484 26.7214 34.5149 26.7214C36.3226 26.7214 38.2072 26.4259 39.9601 25.6096C46.28 22.667 48.5086 14.0635 48.5086 14.0635C48.5086 14.0635 44.3246 12.0655 39.6195 12.0655C37.8463 12.0664 36.0015 12.3569 34.2768 13.1372C34.1274 16.8542 32.5397 19.7172 30.7984 21.7612L38.4247 18.7604Z" fill="#2081E2"/>
<path d="M25.0973 19.7353L25.6225 11.1243L26.1007 18.9491C26.1007 18.9491 26.1015 18.9482 26.1015 18.9473L26.0753 19.8065L26.0015 23.6056C31.0282 20.1246 37.69 10.8372 25.6225 0C25.6225 0 19.7456 4.85354 18.8814 11.1119C22.1244 13.3711 24.0322 16.9026 25.0973 19.7353Z" fill="#2081E2"/>
</svg>
